<svg id="Réteg_1" data-name="Réteg 1" xmlns="http://www.w3.org/2000/svg" viewBox="0 0 108.83 113.16"><defs><style>.cls-1{font-size:15px;font-family:CALIBRIB, Rockwell;font-weight:900;}.cls-1,.cls-9{fill:#06565f;}.cls-2{letter-spacing:-0.02em;}.cls-3{letter-spacing:-0.01em;}.cls-4{letter-spacing:-0.04em;}.cls-5{letter-spacing:-0.02em;}.cls-6{letter-spacing:0.02em;}.cls-7{font-family:Rockwell-Regular, Rockwell;font-weight:400;}.cls-8{letter-spacing:-0.06em;}</style></defs><text class="cls-1" transform="translate(13.42 25.35)">C<tspan class="cls-2" x="12.71" y="0">h</tspan><tspan x="22.5" y="0">e</tspan><tspan class="cls-3" x="31.63" y="0">s</tspan><tspan x="39.29" y="0">t</tspan><tspan class="cls-4" x="45.12" y="0">n</tspan><tspan class="cls-5" x="54.73" y="0">u</tspan><tspan x="64.51" y="0">t</tspan><tspan x="0" y="18">G</tspan><tspan class="cls-5" x="13.73" y="18">lo</tspan><tspan x="27.71" y="18">bal</tspan><tspan class="cls-5" x="0" y="36">P</tspan><tspan x="10.52" y="36">a</tspan><tspan class="cls-6" x="19.91" y="36">r</tspan><tspan x="27.53" y="36">t</tspan><tspan class="cls-2" x="33.35" y="36">n</tspan><tspan class="cls-3" x="43.39" y="36">er</tspan><tspan x="59.57" y="36">s</tspan><tspan class="cls-7"><tspan x="0" y="54">Eu</tspan><tspan class="cls-8" x="19.35" y="54">r</tspan><tspan x="25.25" y="54">ope</tspan></tspan></text><path class="cls-9" d="M241.46,297.06a.58.58,0,0,1,0,.1.08.08,0,0,1,0,.06s0,0-.08,0h-.29l-.08,0,0,0,0,0-.32-.92H239l-.31.91,0,.05-.05,0-.08,0h-.27l-.08,0a.11.11,0,0,1,0-.06.3.3,0,0,1,0-.11l1.27-3.52,0,0a.06.06,0,0,1,.06,0l.09,0h.3l.1,0a.06.06,0,0,1,.06,0,.09.09,0,0,1,0,0ZM239.82,294h0l-.65,1.89h1.31Z" transform="translate(-195.6 -193.44)"/><path class="cls-9" d="M245.41,297v.09a.64.64,0,0,1,0,.07l0,0-.05,0h-1.68a.21.21,0,0,1-.12-.05.18.18,0,0,1-.06-.16v-3.51s0,0,0,0l0,0,.08,0h.24l.08,0,0,0s0,0,0,0v3.28h1.41l0,0a.64.64,0,0,1,0,.07Z" transform="translate(-195.6 -193.44)"/><path class="cls-9" d="M246.45,293.63a.37.37,0,0,1-.06.24.35.35,0,0,1-.24.06.33.33,0,0,1-.23-.52.35.35,0,0,1,.24-.06.33.33,0,0,1,.23.06A.3.3,0,0,1,246.45,293.63Zm0,3.53s0,0,0,0l0,0-.08,0H246l-.08,0,0,0s0,0,0,0v-2.67s0,0,0,0l.08,0h.23l.08,0s0,0,0,0v2.67Z" transform="translate(-195.6 -193.44)"/><path class="cls-9" d="M248.74,293.44a.22.22,0,0,1,0,.09.43.43,0,0,1,0,.05s0,0,0,0h-.08l-.08,0-.1,0-.14,0a.48.48,0,0,0-.18,0,.24.24,0,0,0-.13.11.47.47,0,0,0-.06.19,1.23,1.23,0,0,0,0,.29v.29h.63l0,0a.14.14,0,0,1,0,.07.22.22,0,0,1,0,.09.28.28,0,0,1,0,.15.08.08,0,0,1-.07.05h-.59v2.31s0,0,0,0l0,0-.07,0h-.24l-.07,0,0,0s0,0,0,0v-2.31h-.37a.07.07,0,0,1-.07-.05.28.28,0,0,1,0-.15.22.22,0,0,1,0-.09.14.14,0,0,1,0-.07l0,0h.42v-.27a1.68,1.68,0,0,1,.05-.48.74.74,0,0,1,.16-.32.55.55,0,0,1,.26-.19,1.08,1.08,0,0,1,.38-.06l.2,0,.15,0,.07,0,0,0s0,0,0,.06A.31.31,0,0,1,248.74,293.44Z" transform="translate(-195.6 -193.44)"/><path class="cls-9" d="M251.23,295.73a.18.18,0,0,1-.06.16.21.21,0,0,1-.13.05H249.3a1.64,1.64,0,0,0,0,.4.85.85,0,0,0,.15.3.66.66,0,0,0,.27.19,1,1,0,0,0,.4.07,1.72,1.72,0,0,0,.34,0l.25-.07.18-.07.1,0h0l0,0a.35.35,0,0,1,0,.06V297a.07.07,0,0,1,0,.05s0,0,0,0l0,0-.09.05-.21.07a1.84,1.84,0,0,1-.29.06,2,2,0,0,1-.35,0,1.62,1.62,0,0,1-.57-.09,1,1,0,0,1-.41-.27,1.11,1.11,0,0,1-.26-.45,2.33,2.33,0,0,1-.08-.62,2,2,0,0,1,.09-.62,1.36,1.36,0,0,1,.25-.46,1.18,1.18,0,0,1,.4-.29,1.47,1.47,0,0,1,.53-.1,1.34,1.34,0,0,1,.52.1,1,1,0,0,1,.36.27.9.9,0,0,1,.21.4,1.85,1.85,0,0,1,.07.48Zm-.49-.14a.84.84,0,0,0-.17-.6.64.64,0,0,0-.53-.22.66.66,0,0,0-.32.07.55.55,0,0,0-.22.18.72.72,0,0,0-.14.26.81.81,0,0,0-.06.31Z" transform="translate(-195.6 -193.44)"/><path class="cls-9" d="M255.65,297.12a.16.16,0,0,1,0,.07.09.09,0,0,1-.06,0l-.1,0h-.3l-.11,0s0,0-.06,0l0-.07-.8-2.86h0l-.73,2.86,0,.07-.06,0-.1,0h-.32l-.1,0a.09.09,0,0,1-.06,0,.09.09,0,0,1,0-.07l-1-3.5a.58.58,0,0,1,0-.1.06.06,0,0,1,0-.06s0,0,.08,0h.29l.08,0s0,0,0,0,0,0,0,0l.85,3.18h0l.81-3.17,0-.06.05,0,.08,0h.27l.08,0,0,0a.14.14,0,0,1,0,.06l.87,3.17h0l.84-3.18s0,0,0,0l0,0,.08,0h.27l.08,0a.08.08,0,0,1,0,.06.58.58,0,0,1,0,.1Z" transform="translate(-195.6 -193.44)"/><path class="cls-9" d="M259.5,295.81a1.9,1.9,0,0,1-.08.6,1.51,1.51,0,0,1-.25.47,1.19,1.19,0,0,1-.43.3,1.34,1.34,0,0,1-.58.11,1.62,1.62,0,0,1-.57-.09,1,1,0,0,1-.4-.29,1.11,1.11,0,0,1-.24-.44,2.29,2.29,0,0,1,0-1.2,1.21,1.21,0,0,1,.25-.46,1.1,1.1,0,0,1,.42-.31,1.55,1.55,0,0,1,.59-.11,1.42,1.42,0,0,1,.57.1,1,1,0,0,1,.4.28,1.08,1.08,0,0,1,.24.45A1.83,1.83,0,0,1,259.5,295.81Zm-.5,0a1.78,1.78,0,0,0,0-.41.88.88,0,0,0-.13-.33.62.62,0,0,0-.25-.23.87.87,0,0,0-.39-.08.84.84,0,0,0-.37.07.67.67,0,0,0-.25.22.84.84,0,0,0-.15.33,1.38,1.38,0,0,0-.05.42,1.7,1.7,0,0,0,0,.4.93.93,0,0,0,.13.34.67.67,0,0,0,.25.22.78.78,0,0,0,.39.08.84.84,0,0,0,.37-.07.62.62,0,0,0,.26-.22,1.05,1.05,0,0,0,.15-.32A1.87,1.87,0,0,0,259,295.85Z" transform="translate(-195.6 -193.44)"/><path class="cls-9" d="M261.76,294.7v.11s0,.05,0,.06a.05.05,0,0,1,0,0l0,0-.06,0-.08,0-.09,0h-.12a.35.35,0,0,0-.14,0,.44.44,0,0,0-.15.1.88.88,0,0,0-.16.17l-.19.28v1.73s0,0,0,0l0,0-.07,0h-.24l-.08,0,0,0s0,0,0,0v-2.64a0,0,0,0,1,0,0,0,0,0,0,1,0,0l.07,0h.21l.07,0a0,0,0,0,1,0,0,0,0,0,0,1,0,0v.39a2.13,2.13,0,0,1,.21-.26.86.86,0,0,1,.18-.16l.17-.08.16,0h.19l.1,0,.06,0,0,0a0,0,0,0,1,0,0,.35.35,0,0,1,0,.06Z" transform="translate(-195.6 -193.44)"/><path class="cls-9" d="M264.48,297.16a.05.05,0,0,1,0,0l0,0-.07,0h-.26l-.09,0-.05,0,0,0-1.12-1.46v1.46s0,0,0,0l0,0-.07,0h-.24l-.07,0,0,0s0,0,0,0v-3.91s0,0,0,0,0,0,0,0l.07,0h.24l.07,0s0,0,0,0,0,0,0,0v2.38l1-1.09,0-.05.06,0,.09,0h.32l.05,0s0,0,0,0a.14.14,0,0,1,0,.07.21.21,0,0,1-.06.08l-1,1,1.08,1.39,0,.08A.14.14,0,0,1,264.48,297.16Z" transform="translate(-195.6 -193.44)"/><path class="cls-9" d="M266.64,296.44a.87.87,0,0,1-.08.37.75.75,0,0,1-.21.26,1,1,0,0,1-.33.17,1.73,1.73,0,0,1-.42.05l-.26,0a.7.7,0,0,1-.23-.06.54.54,0,0,1-.17-.07l-.11-.06a.2.2,0,0,1,0-.08.61.61,0,0,1,0-.15.25.25,0,0,1,0-.09.35.35,0,0,1,0-.06l0,0h0a.26.26,0,0,1,.1,0l.15.09.22.09a1.27,1.27,0,0,0,.29,0,.8.8,0,0,0,.23,0,.53.53,0,0,0,.17-.08.28.28,0,0,0,.11-.13.36.36,0,0,0,0-.19.28.28,0,0,0-.06-.18.34.34,0,0,0-.15-.14,1,1,0,0,0-.21-.1l-.24-.1-.24-.11a1.12,1.12,0,0,1-.22-.16.8.8,0,0,1-.15-.21.94.94,0,0,1-.05-.3.73.73,0,0,1,.06-.3.64.64,0,0,1,.18-.25.87.87,0,0,1,.3-.17,1.09,1.09,0,0,1,.42-.07l.21,0,.19,0,.14.06.1.06,0,0s0,0,0,0a.43.43,0,0,1,0,.05v.17s0,0,0,.06l0,0h0l-.08,0a.5.5,0,0,0-.13-.07.75.75,0,0,0-.18-.07,1,1,0,0,0-.25,0,.66.66,0,0,0-.21,0,.34.34,0,0,0-.16.07.38.38,0,0,0-.09.13.33.33,0,0,0,0,.15.29.29,0,0,0,.06.19.67.67,0,0,0,.15.14,1,1,0,0,0,.21.1l.25.1.25.11a.78.78,0,0,1,.36.36A.65.65,0,0,1,266.64,296.44Z" transform="translate(-195.6 -193.44)"/><path class="cls-9" d="M269.66,296.28a1.73,1.73,0,0,1,0,.41.86.86,0,0,1-.14.32.71.71,0,0,1-.27.21.93.93,0,0,1-.4.07h-.16l-.15,0-.12-.05-.06,0,0,0,0-.05a.18.18,0,0,0,0-.06v-.19s0-.06,0-.07l0,0h0l.06,0a.19.19,0,0,0,.09,0,.33.33,0,0,0,.12.05.34.34,0,0,0,.15,0,.42.42,0,0,0,.17,0,.27.27,0,0,0,.12-.09.47.47,0,0,0,.07-.19,1.37,1.37,0,0,0,0-.31v-2.71a.05.05,0,0,1,0,0l0,0,.07,0h.25l.07,0,0,0s0,0,0,0Z" transform="translate(-195.6 -193.44)"/><path class="cls-9" d="M273.06,295.81a1.89,1.89,0,0,1-.09.6,1.51,1.51,0,0,1-.25.47,1.15,1.15,0,0,1-.42.3,1.38,1.38,0,0,1-.59.11,1.62,1.62,0,0,1-.57-.09,1.06,1.06,0,0,1-.4-.29,1.11,1.11,0,0,1-.24-.44,1.9,1.9,0,0,1-.08-.6,2.23,2.23,0,0,1,.08-.6,1.36,1.36,0,0,1,.25-.46,1.27,1.27,0,0,1,.42-.31,1.55,1.55,0,0,1,.59-.11,1.42,1.42,0,0,1,.57.1,1,1,0,0,1,.4.28,1.22,1.22,0,0,1,.25.45A2.16,2.16,0,0,1,273.06,295.81Zm-.5,0a2.59,2.59,0,0,0,0-.41,1.1,1.1,0,0,0-.14-.33.66.66,0,0,0-.24-.23,1,1,0,0,0-.4-.08.87.87,0,0,0-.37.07.67.67,0,0,0-.25.22.84.84,0,0,0-.15.33,1.79,1.79,0,0,0-.05.42,1.7,1.7,0,0,0,0,.4,1.15,1.15,0,0,0,.13.34.67.67,0,0,0,.25.22.8.8,0,0,0,.39.08.82.82,0,0,0,.37-.07.62.62,0,0,0,.26-.22.86.86,0,0,0,.15-.32A1.86,1.86,0,0,0,272.56,295.85Z" transform="translate(-195.6 -193.44)"/><path class="cls-9" d="M274.31,293.63a.31.31,0,0,1-.07.24.33.33,0,0,1-.23.06.35.35,0,0,1-.24-.06.47.47,0,0,1,0-.46.38.38,0,0,1,.24-.06.32.32,0,0,1,.23.06A.26.26,0,0,1,274.31,293.63Zm-.06,3.53s0,0,0,0l0,0-.07,0h-.24l-.07,0,0,0s0,0,0,0v-2.64a0,0,0,0,1,0,0s0,0,0,0l.07,0h.24l.07,0s0,0,0,0a0,0,0,0,1,0,0Z" transform="translate(-195.6 -193.44)"/><path class="cls-9" d="M277.42,297.16s0,0,0,0l0,0-.07,0h-.24l-.08,0,0,0a.05.05,0,0,1,0,0v-1.54a1.9,1.9,0,0,0,0-.37.7.7,0,0,0-.1-.23.55.55,0,0,0-.18-.16.6.6,0,0,0-.24-.05.6.6,0,0,0-.37.13,1.94,1.94,0,0,0-.38.38v1.84s0,0,0,0l0,0-.07,0h-.24l-.08,0,0,0s0,0,0,0v-2.64a0,0,0,0,1,0,0,0,0,0,0,1,0,0l.07,0h.21l.07,0a0,0,0,0,1,0,0,0,0,0,0,1,0,0v.35a1.78,1.78,0,0,1,.45-.36.88.88,0,0,1,.44-.12,1,1,0,0,1,.45.09.76.76,0,0,1,.29.24,1,1,0,0,1,.16.35,2.28,2.28,0,0,1,.05.48Z" transform="translate(-195.6 -193.44)"/><path class="cls-9" d="M279.62,297c0,.06,0,.1,0,.13a.15.15,0,0,1,0,.08l-.07,0-.11,0-.12,0h-.14a.91.91,0,0,1-.35-.06.51.51,0,0,1-.24-.16.82.82,0,0,1-.14-.28,1.59,1.59,0,0,1,0-.4v-1.54H278s-.05,0-.07-.05a.28.28,0,0,1,0-.15s0-.07,0-.09a.64.64,0,0,1,0-.07l0,0h.41v-.63a.06.06,0,0,1,0,0l0,0,.07,0h.24l.07,0,0,0a.06.06,0,0,1,0,0v.63h.72l0,0a.14.14,0,0,1,0,.07.22.22,0,0,1,0,.09.28.28,0,0,1,0,.15s0,.05-.07.05h-.68v1.47a.87.87,0,0,0,.08.41.3.3,0,0,0,.29.14h.12l.1,0,.07,0h.08s0,0,0,0a.43.43,0,0,1,0,.05A.25.25,0,0,1,279.62,297Z" transform="translate(-195.6 -193.44)"/><path class="cls-9" d="M283.2,297.15l0,.05a.09.09,0,0,1-.06,0l-.09,0h-.34l-.06,0,0,0,0,0,0,0-1.24-3.53a.58.58,0,0,1,0-.1,0,0,0,0,1,0-.06s0,0,.09,0h.28l.08,0s0,0,0,0a.08.08,0,0,1,0,0l1.09,3.19h0l1.06-3.19,0,0s0,0,0,0l.09,0h.28l.07,0a.08.08,0,0,1,0,.06.54.54,0,0,1,0,.1Z" transform="translate(-195.6 -193.44)"/><path class="cls-9" d="M287,295.73a.18.18,0,0,1-.06.16.19.19,0,0,1-.13.05h-1.73a1.64,1.64,0,0,0,0,.4.85.85,0,0,0,.15.3.66.66,0,0,0,.27.19,1,1,0,0,0,.4.07,1.72,1.72,0,0,0,.34,0l.25-.07.18-.07.1,0h0l0,0s0,0,0,.06V297a.43.43,0,0,1,0,.05s0,0,0,0l0,0-.1.05-.2.07a1.84,1.84,0,0,1-.29.06,2,2,0,0,1-.36,0,1.7,1.7,0,0,1-.57-.09,1,1,0,0,1-.41-.27,1.22,1.22,0,0,1-.25-.45,2,2,0,0,1-.08-.62,2,2,0,0,1,.08-.62,1.38,1.38,0,0,1,.26-.46,1.18,1.18,0,0,1,.4-.29,1.42,1.42,0,0,1,.52-.1,1.39,1.39,0,0,1,.53.1,1,1,0,0,1,.36.27,1.17,1.17,0,0,1,.21.4,1.86,1.86,0,0,1,.06.48Zm-.48-.14a1,1,0,0,0-.17-.6.64.64,0,0,0-.53-.22.66.66,0,0,0-.32.07.58.58,0,0,0-.23.18.92.92,0,0,0-.14.26,1.06,1.06,0,0,0-.05.31Z" transform="translate(-195.6 -193.44)"/><path class="cls-9" d="M290,297.16s0,0,0,0l0,0-.07,0h-.24l-.07,0,0,0s0,0,0,0v-1.54a1.82,1.82,0,0,0,0-.37.7.7,0,0,0-.1-.23.46.46,0,0,0-.18-.16.6.6,0,0,0-.24-.05.62.62,0,0,0-.37.13,1.94,1.94,0,0,0-.38.38v1.84s0,0,0,0l0,0-.07,0h-.24l-.07,0,0,0s0,0,0,0v-2.64a0,0,0,0,1,0,0,0,0,0,0,1,0,0l.07,0H288l.07,0a0,0,0,0,1,0,0,0,0,0,0,1,0,0v.35a1.78,1.78,0,0,1,.45-.36,1,1,0,0,1,.45-.12,1,1,0,0,1,.44.09.76.76,0,0,1,.29.24.86.86,0,0,1,.16.35,2.28,2.28,0,0,1,.05.48Z" transform="translate(-195.6 -193.44)"/><path class="cls-9" d="M292.18,297c0,.06,0,.1,0,.13a.15.15,0,0,1,0,.08l-.07,0-.11,0-.12,0h-.14a1,1,0,0,1-.35-.06.51.51,0,0,1-.24-.16.82.82,0,0,1-.14-.28,1.59,1.59,0,0,1,0-.4v-1.54h-.37s-.05,0-.07-.05a.28.28,0,0,1,0-.15s0-.07,0-.09a.64.64,0,0,1,0-.07l0,0h.41v-.63a.06.06,0,0,1,0,0l0,0,.07,0h.24l.07,0,0,0a.06.06,0,0,1,0,0v.63h.72l0,0a.14.14,0,0,1,0,.07.22.22,0,0,1,0,.09.28.28,0,0,1,0,.15s0,.05-.07.05h-.68v1.47a.87.87,0,0,0,.08.41.31.31,0,0,0,.29.14h.12l.1,0,.07,0h.08s0,0,0,0a.43.43,0,0,1,0,.05A.25.25,0,0,1,292.18,297Z" transform="translate(-195.6 -193.44)"/><path class="cls-9" d="M295.08,297.16s0,0,0,0l0,0-.07,0h-.21l-.07,0,0,0s0,0,0,0v-.35a1.63,1.63,0,0,1-.45.37,1,1,0,0,1-.44.11,1,1,0,0,1-.45-.09A.73.73,0,0,1,293,297a1.07,1.07,0,0,1-.16-.36,2.14,2.14,0,0,1-.05-.48v-1.64s0,0,0,0l.08,0h.23l.08,0s0,0,0,0a0,0,0,0,1,0,0v1.54a1.77,1.77,0,0,0,0,.37.88.88,0,0,0,.11.24.41.41,0,0,0,.17.15.49.49,0,0,0,.25.06.66.66,0,0,0,.36-.13,2.26,2.26,0,0,0,.38-.38v-1.85a0,0,0,0,1,0,0s0,0,0,0l.08,0H295l.08,0a0,0,0,0,1,0,0l0,0Z" transform="translate(-195.6 -193.44)"/><path class="cls-9" d="M297.51,294.7v.11s0,.05,0,.06l0,0,0,0-.06,0-.07,0-.1,0h-.11l-.15,0a.53.53,0,0,0-.14.1.91.91,0,0,0-.17.17c-.05.08-.12.17-.18.28v1.73a.05.05,0,0,1,0,0l0,0-.08,0h-.23l-.08,0,0,0s0,0,0,0v-2.64a0,0,0,0,1,0,0s0,0,0,0l.06,0h.22l.06,0s0,0,0,0v.42a2.17,2.17,0,0,1,.2-.26l.18-.16.17-.08.17,0h.19l.09,0,.06,0,0,0a0,0,0,0,0,0,0v.17Z" transform="translate(-195.6 -193.44)"/><path class="cls-9" d="M300.24,295.73a.18.18,0,0,1-.06.16.21.21,0,0,1-.13.05h-1.74a1.62,1.62,0,0,0,.05.4.69.69,0,0,0,.14.3.66.66,0,0,0,.27.19,1,1,0,0,0,.4.07,1.72,1.72,0,0,0,.34,0l.25-.07.18-.07.11,0h0l0,0a.35.35,0,0,1,0,.06s0,.05,0,.09,0,0,0,.06V297l0,0,0,0-.09.05a1.27,1.27,0,0,1-.21.07,1.84,1.84,0,0,1-.29.06,2,2,0,0,1-.35,0,1.62,1.62,0,0,1-.57-.09,1,1,0,0,1-.41-.27,1.1,1.1,0,0,1-.25-.45,2,2,0,0,1-.09-.62,2,2,0,0,1,.09-.62,1.36,1.36,0,0,1,.25-.46,1.28,1.28,0,0,1,.4-.29,1.47,1.47,0,0,1,.53-.1,1.43,1.43,0,0,1,.53.1,1.06,1.06,0,0,1,.35.27.9.9,0,0,1,.21.4,1.85,1.85,0,0,1,.07.48Zm-.49-.14a.84.84,0,0,0-.17-.6.63.63,0,0,0-.53-.22.62.62,0,0,0-.31.07.58.58,0,0,0-.23.18.72.72,0,0,0-.14.26,1.07,1.07,0,0,0-.06.31Z" transform="translate(-195.6 -193.44)"/><path class="cls-9" d="M300.24,193.44H195.6V287.6h18v16.93l5.74,2.07,19-19h66.1V193.44Zm0,90H236.62L219.7,300.3l-1.91,1.91V283.4h-18V197.64H300.24Z" transform="translate(-195.6 -193.44)"/></svg>